<?xml version="1.0" encoding="UTF-8"?>
<svg id="Warstwa_2" data-name="Warstwa 2" xmlns="http://www.w3.org/2000/svg" viewBox="0 0 816.91 178.44">
  <defs>
    <style>
      .cls-1, .cls-2, .cls-3 {
        stroke-width: 0px;
      }

      .cls-2 {
        fill: #2b2b2d;
      }

      .cls-3 {
        fill: #ffda35;
      }
    </style>
  </defs>
  <g id="Warstwa_1-2" data-name="Warstwa 1">
    <g>
      <g>
        <path class="cls-1" d="M207.11,89.4c0-19.09,14.13-32.62,33.82-32.62,11.48,0,21.02,4.71,26.09,13.65l-8.82,5.68c-4.11-6.28-10.39-9.18-17.4-9.18-12.56,0-21.99,8.82-21.99,22.47s9.42,22.59,21.99,22.59c7.01,0,13.29-2.9,17.4-9.18l8.82,5.56c-5.07,8.94-14.62,13.77-26.09,13.77-19.69,0-33.82-13.65-33.82-32.74Z"/>
        <path class="cls-1" d="M341.93,84.57v36.85h-11.6v-35.52c0-12.56-6.28-18.72-17.27-18.72-12.32,0-20.3,7.37-20.3,21.26v32.98h-11.6V31.78h11.6v34.67c4.83-6.16,12.81-9.66,22.59-9.66,15.58,0,26.58,8.94,26.58,27.78Z"/>
        <path class="cls-1" d="M414.16,82.76v38.66h-10.99v-8.46c-3.87,5.8-10.99,9.18-21.02,9.18-14.5,0-23.68-7.73-23.68-18.85,0-10.27,6.64-18.72,25.73-18.72h18.36v-2.3c0-9.79-5.68-15.46-17.15-15.46-7.61,0-15.34,2.66-20.29,6.89l-4.83-8.7c6.64-5.32,16.19-8.21,26.46-8.21,17.52,0,27.42,8.46,27.42,25.97ZM402.57,101.85v-8.94h-17.88c-11.48,0-14.74,4.47-14.74,9.91,0,6.4,5.32,10.39,14.13,10.39s15.58-3.99,18.48-11.36Z"/>
        <path class="cls-1" d="M541.97,84.57v36.85h-11.6v-35.52c0-12.56-6.04-18.72-16.55-18.72-11.6,0-19.21,7.37-19.21,21.26v32.98h-11.6v-35.52c0-12.56-6.04-18.72-16.55-18.72-11.6,0-19.21,7.37-19.21,21.26v32.98h-11.6V57.39h11.11v9.54c4.59-6.52,12.44-10.15,22.11-10.15s18,3.87,22.23,11.84c4.83-7.25,13.77-11.84,24.64-11.84,15.58,0,26.21,8.94,26.21,27.78Z"/>
        <path class="cls-1" d="M629.67,89.4c0,19.69-13.65,32.74-32.38,32.74-9.06,0-17.03-3.5-22.35-10.39v33.1h-11.6V57.39h11.11v10.15c5.19-7.13,13.41-10.75,22.83-10.75,18.72,0,32.38,13.05,32.38,32.62ZM617.95,89.4c0-13.53-9.3-22.47-21.62-22.47s-21.5,8.94-21.5,22.47,9.3,22.59,21.5,22.59,21.62-8.94,21.62-22.59Z"/>
        <path class="cls-1" d="M643.68,37.58c0-4.23,3.38-7.61,7.85-7.61s7.85,3.26,7.85,7.37c0,4.35-3.26,7.73-7.85,7.73s-7.85-3.26-7.85-7.49ZM645.73,57.39h11.6v64.03h-11.6V57.39Z"/>
        <path class="cls-1" d="M673.52,89.4c0-19.09,14.13-32.62,33.34-32.62s33.22,13.53,33.22,32.62-14.01,32.74-33.22,32.74-33.34-13.65-33.34-32.74ZM728.36,89.4c0-13.65-9.18-22.47-21.5-22.47s-21.62,8.82-21.62,22.47,9.3,22.59,21.62,22.59,21.5-8.94,21.5-22.59Z"/>
        <path class="cls-1" d="M816.91,84.57v36.85h-11.6v-35.52c0-12.56-6.28-18.72-17.27-18.72-12.32,0-20.3,7.37-20.3,21.26v32.98h-11.6V57.39h11.11v9.66c4.71-6.52,12.93-10.27,23.07-10.27,15.58,0,26.58,8.94,26.58,27.78Z"/>
      </g>
      <g>
        <path class="cls-2" d="M79.21,0L4.78,74.43c-6.37,6.37-6.37,16.71,0,23.08l28.85,28.85L119.59,40.39,79.21,0ZM71.42,77.02l-4.04,4.04-4.04-4.04c-1.59-1.59-1.59-4.18,0-5.77l4.04-4.04,4.04,4.04c1.59,1.59,1.59,4.18,0,5.77Z"/>
        <path class="cls-3" d="M160.14,80.93l-28.85-28.85-85.97,85.97,40.39,40.39,74.43-74.43c6.37-6.37,6.37-16.71,0-23.08ZM101.58,107.19l-4.04,4.04-4.04-4.04c-1.59-1.59-1.59-4.18,0-5.77l4.04-4.04,4.04,4.04c1.59,1.59,1.59,4.18,0,5.77Z"/>
      </g>
    </g>
  </g>
</svg>