<?xml version="1.0" encoding="UTF-8"?>
<svg id="Warstwa_2" data-name="Warstwa 2" xmlns="http://www.w3.org/2000/svg" viewBox="0 0 164.92 178.44">
  <defs>
    <style>
      .cls-1 {
        fill: #fff;
      }

      .cls-1, .cls-2 {
        stroke-width: 0px;
      }

      .cls-2 {
        fill: #ffda35;
      }
    </style>
  </defs>
  <g id="Warstwa_1-2" data-name="Warstwa 1">
    <g>
      <path class="cls-1" d="M79.21,0L4.78,74.43c-6.37,6.37-6.37,16.71,0,23.08l28.85,28.85L119.59,40.39,79.21,0ZM71.42,77.02l-4.04,4.04-4.04-4.04c-1.59-1.59-1.59-4.18,0-5.77l4.04-4.04,4.04,4.04c1.59,1.59,1.59,4.18,0,5.77Z"/>
      <path class="cls-2" d="M160.14,80.93l-28.85-28.85-85.97,85.97,40.39,40.39,74.43-74.43c6.37-6.37,6.37-16.71,0-23.08ZM101.58,107.19l-4.04,4.04-4.04-4.04c-1.59-1.59-1.59-4.18,0-5.77l4.04-4.04,4.04,4.04c1.59,1.59,1.59,4.18,0,5.77Z"/>
    </g>
  </g>
</svg>