<svg width="760" height="1114" viewBox="0 0 760 1114" fill="none" xmlns="http://www.w3.org/2000/svg">
<path d="M256.193 993.356L330.584 976.267L308.188 1049.24L256.193 993.356Z" fill="#2B2B2D"/>
<path d="M636.348 363.142L710.739 346.054L688.343 419.021L636.348 363.142Z" fill="#2B2B2D"/>
<path d="M583.968 533.798L658.358 516.71L635.962 589.678L583.968 533.798Z" fill="#2B2B2D"/>
<path d="M531.592 704.443L605.982 687.355L583.586 760.323L531.592 704.443Z" fill="#2B2B2D"/>
<path d="M479.216 875.088L553.606 858L531.21 930.967L479.216 875.088Z" fill="#2B2B2D"/>
<path d="M426.84 1045.73L501.231 1028.64L478.834 1101.61L426.84 1045.73Z" fill="#2B2B2D"/>
<path d="M577.211 251.635L651.602 234.546L629.206 307.514L577.211 251.635Z" fill="#2B2B2D"/>
<path d="M524.834 422.284L599.224 405.196L576.828 478.164L524.834 422.284Z" fill="#2B2B2D"/>
<path d="M472.457 592.932L546.848 575.844L524.452 648.812L472.457 592.932Z" fill="#2B2B2D"/>
<path d="M367.705 934.222L442.095 917.134L419.699 990.102L367.705 934.222Z" fill="#2B2B2D"/>
<path d="M465.701 310.765L540.092 293.677L517.696 366.645L465.701 310.765Z" fill="#2B2B2D"/>
<path d="M413.322 481.422L487.712 464.334L465.316 537.301L413.322 481.422Z" fill="#2B2B2D"/>
<path d="M360.945 652.066L435.336 634.978L412.94 707.946L360.945 652.066Z" fill="#2B2B2D"/>
<path d="M308.569 822.712L382.96 805.623L360.564 878.591L308.569 822.712Z" fill="#2B2B2D"/>
<path d="M406.565 199.26L480.955 182.172L458.559 255.14L406.565 199.26Z" fill="#2B2B2D"/>
<path d="M354.189 369.905L428.579 352.817L406.183 425.785L354.189 369.905Z" fill="#2B2B2D"/>
<path d="M301.811 540.556L376.201 523.467L353.805 596.435L301.811 540.556Z" fill="#2B2B2D"/>
<path d="M249.435 711.201L323.825 694.113L301.429 767.08L249.435 711.201Z" fill="#2B2B2D"/>
<path d="M197.058 881.845L271.449 864.757L249.053 937.724L197.058 881.845Z" fill="#2B2B2D"/>
<path d="M295.055 258.389L369.446 241.3L347.05 314.268L295.055 258.389Z" fill="#2B2B2D"/>
<path d="M241.951 431.406L316.342 414.318L293.946 487.286L241.951 431.406Z" fill="#2B2B2D"/>
<path d="M190.3 599.69L264.69 582.602L242.294 655.57L190.3 599.69Z" fill="#2B2B2D"/>
<path d="M137.924 770.335L212.314 753.247L189.918 826.214L137.924 770.335Z" fill="#2B2B2D"/>
<path d="M85.5473 940.979L159.938 923.891L137.542 996.859L85.5473 940.979Z" fill="#2B2B2D"/>
<path d="M235.918 146.886L310.309 129.797L287.913 202.765L235.918 146.886Z" fill="#2B2B2D"/>
<path d="M183.543 317.527L257.934 300.438L235.538 373.406L183.543 317.527Z" fill="#2B2B2D"/>
<path d="M131.165 488.179L205.555 471.091L183.159 544.059L131.165 488.179Z" fill="#2B2B2D"/>
<path d="M78.7888 658.824L153.179 641.736L130.783 714.703L78.7888 658.824Z" fill="#2B2B2D"/>
<path d="M26.4123 829.469L100.803 812.381L78.4067 885.349L26.4123 829.469Z" fill="#2B2B2D"/>
<path d="M124.408 206.012L198.799 188.924L176.403 261.891L124.408 206.012Z" fill="#2B2B2D"/>
<path d="M72.0288 376.668L146.419 359.58L124.023 432.548L72.0288 376.668Z" fill="#2B2B2D"/>
<path d="M19.6525 547.313L94.043 530.225L71.647 603.192L19.6525 547.313Z" fill="#2B2B2D"/>
<path d="M-32.7239 717.958L41.6666 700.87L19.2705 773.838L-32.7239 717.958Z" fill="#2B2B2D"/>
<path d="M65.27 94.5109L139.66 77.4228L117.264 150.39L65.27 94.5109Z" fill="#2B2B2D"/>
<path d="M12.8967 265.148L87.2872 248.059L64.8911 321.027L12.8967 265.148Z" fill="#2B2B2D"/>
<path d="M-39.4825 435.802L34.908 418.714L12.512 491.682L-39.4825 435.802Z" fill="#2B2B2D"/>
<path d="M-46.2383 153.635L28.1522 136.547L5.75611 209.515L-46.2383 153.635Z" fill="#2B2B2D"/>
<path d="M420.081 763.577L494.471 746.489L472.075 819.457L420.081 763.577Z" fill="#2B2B2D"/>
<path d="M746.789 303.692L672.398 320.78L694.794 247.812L746.789 303.692Z" fill="#2B2B2D"/>
<path d="M694.417 474.325L620.026 491.413L642.422 418.445L694.417 474.325Z" fill="#2B2B2D"/>
<path d="M642.037 644.982L567.646 662.07L590.042 589.102L642.037 644.982Z" fill="#2B2B2D"/>
<path d="M589.661 815.626L515.271 832.714L537.667 759.747L589.661 815.626Z" fill="#2B2B2D"/>
<path d="M537.285 986.271L462.894 1003.36L485.29 930.391L537.285 986.271Z" fill="#2B2B2D"/>
<path d="M635.282 362.815L560.891 379.903L583.287 306.935L635.282 362.815Z" fill="#2B2B2D"/>
<path d="M582.902 533.47L508.512 550.558L530.908 477.591L582.902 533.47Z" fill="#2B2B2D"/>
<path d="M530.526 704.116L456.135 721.204L478.531 648.236L530.526 704.116Z" fill="#2B2B2D"/>
<path d="M478.15 874.76L403.759 891.848L426.156 818.881L478.15 874.76Z" fill="#2B2B2D"/>
<path d="M425.773 1045.41L351.383 1062.49L373.779 989.526L425.773 1045.41Z" fill="#2B2B2D"/>
<path d="M576.143 251.315L501.753 268.403L524.149 195.435L576.143 251.315Z" fill="#2B2B2D"/>
<path d="M523.77 421.948L449.38 439.037L471.776 366.069L523.77 421.948Z" fill="#2B2B2D"/>
<path d="M471.391 592.605L397 609.693L419.396 536.725L471.391 592.605Z" fill="#2B2B2D"/>
<path d="M419.014 763.25L344.624 780.338L367.02 707.37L419.014 763.25Z" fill="#2B2B2D"/>
<path d="M366.639 933.895L292.248 950.983L314.644 878.015L366.639 933.895Z" fill="#2B2B2D"/>
<path d="M464.635 310.438L390.245 327.526L412.641 254.558L464.635 310.438Z" fill="#2B2B2D"/>
<path d="M412.256 481.094L337.865 498.182L360.261 425.214L412.256 481.094Z" fill="#2B2B2D"/>
<path d="M359.88 651.739L285.489 668.827L307.885 595.859L359.88 651.739Z" fill="#2B2B2D"/>
<path d="M307.503 822.384L233.113 839.472L255.509 766.504L307.503 822.384Z" fill="#2B2B2D"/>
<path d="M255.128 993.029L180.737 1010.12L203.133 937.15L255.128 993.029Z" fill="#2B2B2D"/>
<path d="M405.497 198.939L331.106 216.027L353.502 143.059L405.497 198.939Z" fill="#2B2B2D"/>
<path d="M353.124 369.572L278.734 386.66L301.13 313.692L353.124 369.572Z" fill="#2B2B2D"/>
<path d="M300.745 540.228L226.354 557.317L248.75 484.349L300.745 540.228Z" fill="#2B2B2D"/>
<path d="M248.368 710.873L173.978 727.961L196.374 654.994L248.368 710.873Z" fill="#2B2B2D"/>
<path d="M195.992 881.518L121.602 898.606L143.998 825.639L195.992 881.518Z" fill="#2B2B2D"/>
<path d="M293.99 258.061L219.599 275.15L241.995 202.182L293.99 258.061Z" fill="#2B2B2D"/>
<path d="M241.61 428.717L167.219 445.805L189.615 372.838L241.61 428.717Z" fill="#2B2B2D"/>
<path d="M189.234 599.362L114.843 616.451L137.239 543.483L189.234 599.362Z" fill="#2B2B2D"/>
<path d="M136.857 770.008L62.4667 787.096L84.8628 714.128L136.857 770.008Z" fill="#2B2B2D"/>
<path d="M84.481 940.652L10.0905 957.74L32.4866 884.772L84.481 940.652Z" fill="#2B2B2D"/>
<path d="M234.85 146.562L160.459 163.65L182.855 90.6823L234.85 146.562Z" fill="#2B2B2D"/>
<path d="M182.477 317.195L108.087 334.283L130.483 261.315L182.477 317.195Z" fill="#2B2B2D"/>
<path d="M130.098 487.851L55.7072 504.939L78.1033 431.972L130.098 487.851Z" fill="#2B2B2D"/>
<path d="M77.7213 658.497L3.33075 675.585L25.7268 602.617L77.7213 658.497Z" fill="#2B2B2D"/>
<path d="M25.345 829.141L-49.0455 846.229L-26.6494 773.262L25.345 829.141Z" fill="#2B2B2D"/>
<path d="M123.342 205.684L48.9516 222.772L71.3476 149.805L123.342 205.684Z" fill="#2B2B2D"/>
<path d="M70.9627 376.34L-3.42779 393.429L18.9682 320.461L70.9627 376.34Z" fill="#2B2B2D"/>
<path d="M18.586 546.985L-55.8045 564.073L-33.4085 491.106L18.586 546.985Z" fill="#2B2B2D"/>
<path d="M64.2037 94.1852L-10.1868 111.273L12.2092 38.3056L64.2037 94.1852Z" fill="#2B2B2D"/>
<path d="M11.8306 264.819L-62.5599 281.907L-40.1638 208.939L11.8306 264.819Z" fill="#2B2B2D"/>
</svg>
