<svg width="513" height="591" viewBox="0 0 513 591" fill="none" xmlns="http://www.w3.org/2000/svg">
<path d="M470.118 141.675L440.441 114.269L479.014 102.271L470.118 141.675Z" fill="#FFD600"/>
<path d="M81.2252 163.701L51.5487 136.294L90.1213 124.297L81.2252 163.701Z" fill="#FFD600"/>
<path d="M171.438 135.641L141.762 108.234L180.334 96.2369L171.438 135.641Z" fill="#FFD600"/>
<path d="M261.646 107.583L231.969 80.1764L270.542 68.1789L261.646 107.583Z" fill="#FFD600"/>
<path d="M351.853 79.525L322.176 52.1187L360.749 40.1212L351.853 79.525Z" fill="#FFD600"/>
<path d="M442.06 51.4669L412.383 24.0606L450.956 12.063L442.06 51.4669Z" fill="#FFD600"/>
<path d="M50.1525 222.833L20.4759 195.426L59.0485 183.429L50.1525 222.833Z" fill="#FFD600"/>
<path d="M140.362 194.774L110.685 167.368L149.258 155.37L140.362 194.774Z" fill="#FFD600"/>
<path d="M230.571 166.716L200.894 139.309L239.467 127.312L230.571 166.716Z" fill="#FFD600"/>
<path d="M410.985 110.6L381.309 83.1935L419.882 71.196L410.985 110.6Z" fill="#FFD600"/>
<path d="M109.283 253.908L79.6068 226.502L118.179 214.504L109.283 253.908Z" fill="#FFD600"/>
<path d="M199.497 225.849L169.82 198.442L208.393 186.445L199.497 225.849Z" fill="#FFD600"/>
<path d="M289.704 197.791L260.027 170.384L298.6 158.387L289.704 197.791Z" fill="#FFD600"/>
<path d="M379.911 169.733L350.234 142.326L388.807 130.329L379.911 169.733Z" fill="#FFD600"/>
<path d="M78.2116 313.04L48.535 285.634L87.1076 273.636L78.2116 313.04Z" fill="#FFD600"/>
<path d="M168.419 284.982L138.743 257.576L177.315 245.578L168.419 284.982Z" fill="#FFD600"/>
<path d="M258.629 256.924L228.952 229.517L267.525 217.52L258.629 256.924Z" fill="#FFD600"/>
<path d="M348.836 228.866L319.16 201.459L357.732 189.462L348.836 228.866Z" fill="#FFD600"/>
<path d="M439.043 200.808L409.367 173.402L447.939 161.404L439.043 200.808Z" fill="#FFD600"/>
<path d="M137.341 344.116L107.665 316.71L146.237 304.712L137.341 344.116Z" fill="#FFD600"/>
<path d="M228.803 315.668L199.126 288.262L237.699 276.264L228.803 315.668Z" fill="#FFD600"/>
<path d="M317.762 287.998L288.085 260.592L326.658 248.595L317.762 287.998Z" fill="#FFD600"/>
<path d="M407.969 259.941L378.292 232.534L416.865 220.537L407.969 259.941Z" fill="#FFD600"/>
<path d="M498.176 231.883L468.499 204.476L507.072 192.479L498.176 231.883Z" fill="#FFD600"/>
<path d="M106.271 403.248L76.5941 375.841L115.167 363.844L106.271 403.248Z" fill="#FFD600"/>
<path d="M196.476 375.19L166.799 347.784L205.372 335.787L196.476 375.19Z" fill="#FFD600"/>
<path d="M286.687 347.131L257.011 319.725L295.583 307.727L286.687 347.131Z" fill="#FFD600"/>
<path d="M376.894 319.074L347.218 291.667L385.79 279.67L376.894 319.074Z" fill="#FFD600"/>
<path d="M467.102 291.016L437.425 263.609L475.998 251.612L467.102 291.016Z" fill="#FFD600"/>
<path d="M165.4 434.324L135.723 406.918L174.296 394.921L165.4 434.324Z" fill="#FFD600"/>
<path d="M255.613 406.265L225.936 378.858L264.509 366.861L255.613 406.265Z" fill="#FFD600"/>
<path d="M345.82 378.207L316.143 350.801L354.716 338.803L345.82 378.207Z" fill="#FFD600"/>
<path d="M436.027 350.149L406.35 322.743L444.923 310.745L436.027 350.149Z" fill="#FFD600"/>
<path d="M526.235 322.091L496.558 294.685L535.131 282.687L526.235 322.091Z" fill="#FFD600"/>
<path d="M134.33 493.456L104.654 466.049L143.226 454.052L134.33 493.456Z" fill="#FFD600"/>
<path d="M224.533 465.399L194.856 437.993L233.429 425.995L224.533 465.399Z" fill="#FFD600"/>
<path d="M314.745 437.34L285.069 409.933L323.641 397.936L314.745 437.34Z" fill="#FFD600"/>
<path d="M404.953 409.282L375.276 381.876L413.849 369.878L404.953 409.282Z" fill="#FFD600"/>
<path d="M495.16 381.224L465.483 353.818L504.056 341.82L495.16 381.224Z" fill="#FFD600"/>
<path d="M193.458 524.532L163.781 497.126L202.354 485.129L193.458 524.532Z" fill="#FFD600"/>
<path d="M283.671 496.473L253.994 469.066L292.567 457.069L283.671 496.473Z" fill="#FFD600"/>
<path d="M373.878 468.415L344.202 441.009L382.774 429.011L373.878 468.415Z" fill="#FFD600"/>
<path d="M464.085 440.357L434.409 412.951L472.981 400.953L464.085 440.357Z" fill="#FFD600"/>
<path d="M162.389 583.663L132.713 556.257L171.285 544.26L162.389 583.663Z" fill="#FFD600"/>
<path d="M252.59 555.608L222.913 528.201L261.486 516.204L252.59 555.608Z" fill="#FFD600"/>
<path d="M342.804 527.548L313.127 500.141L351.7 488.144L342.804 527.548Z" fill="#FFD600"/>
<path d="M433.011 499.49L403.334 472.084L441.907 460.086L433.011 499.49Z" fill="#FFD600"/>
<path d="M523.217 471.432L493.541 444.026L532.113 432.028L523.217 471.432Z" fill="#FFD600"/>
<path d="M320.778 138.658L291.101 111.252L329.674 99.254L320.778 138.658Z" fill="#FFD600"/>
<path d="M22.2743 133.187L51.9508 160.594L13.3783 172.591L22.2743 133.187Z" fill="#FFD600"/>
<path d="M112.475 105.131L142.152 132.538L103.579 144.535L112.475 105.131Z" fill="#FFD600"/>
<path d="M202.688 77.0714L232.365 104.478L193.792 116.475L202.688 77.0714Z" fill="#FFD600"/>
<path d="M292.895 49.0136L322.572 76.42L283.999 88.4175L292.895 49.0136Z" fill="#FFD600"/>
<path d="M383.102 20.9559L412.779 48.3623L374.206 60.3598L383.102 20.9559Z" fill="#FFD600"/>
<path d="M81.4007 164.264L111.077 191.67L72.5047 203.668L81.4007 164.264Z" fill="#FFD600"/>
<path d="M171.614 136.204L201.29 163.611L162.718 175.608L171.614 136.204Z" fill="#FFD600"/>
<path d="M261.821 108.146L291.497 135.553L252.925 147.55L261.821 108.146Z" fill="#FFD600"/>
<path d="M352.028 80.0887L381.704 107.495L343.132 119.493L352.028 80.0887Z" fill="#FFD600"/>
<path d="M442.235 52.0307L471.912 79.4371L433.339 91.4346L442.235 52.0307Z" fill="#FFD600"/>
<path d="M50.3319 223.395L80.0084 250.802L41.4359 262.799L50.3319 223.395Z" fill="#FFD600"/>
<path d="M140.533 195.339L170.21 222.745L131.637 234.743L140.533 195.339Z" fill="#FFD600"/>
<path d="M230.746 167.279L260.423 194.686L221.85 206.683L230.746 167.279Z" fill="#FFD600"/>
<path d="M320.953 139.221L350.63 166.628L312.057 178.625L320.953 139.221Z" fill="#FFD600"/>
<path d="M411.161 111.164L440.837 138.57L402.264 150.568L411.161 111.164Z" fill="#FFD600"/>
<path d="M109.458 254.472L139.135 281.878L100.562 293.876L109.458 254.472Z" fill="#FFD600"/>
<path d="M199.672 226.412L229.348 253.819L190.776 265.816L199.672 226.412Z" fill="#FFD600"/>
<path d="M289.879 198.354L319.555 225.761L280.983 237.758L289.879 198.354Z" fill="#FFD600"/>
<path d="M380.086 170.296L409.763 197.703L371.19 209.7L380.086 170.296Z" fill="#FFD600"/>
<path d="M470.293 142.238L499.97 169.645L461.397 181.642L470.293 142.238Z" fill="#FFD600"/>
<path d="M78.39 313.603L108.067 341.009L69.494 353.007L78.39 313.603Z" fill="#FFD600"/>
<path d="M168.591 285.547L198.268 312.953L159.695 324.951L168.591 285.547Z" fill="#FFD600"/>
<path d="M258.805 257.487L288.481 284.894L249.909 296.891L258.805 257.487Z" fill="#FFD600"/>
<path d="M349.012 229.429L378.688 256.836L340.116 268.833L349.012 229.429Z" fill="#FFD600"/>
<path d="M439.219 201.371L468.895 228.778L430.323 240.775L439.219 201.371Z" fill="#FFD600"/>
<path d="M137.516 344.68L167.193 372.086L128.62 384.084L137.516 344.68Z" fill="#FFD600"/>
<path d="M227.73 316.62L257.406 344.027L218.834 356.024L227.73 316.62Z" fill="#FFD600"/>
<path d="M317.937 288.562L347.613 315.969L309.041 327.966L317.937 288.562Z" fill="#FFD600"/>
<path d="M408.144 260.504L437.821 287.911L399.248 299.908L408.144 260.504Z" fill="#FFD600"/>
<path d="M498.351 232.447L528.027 259.853L489.455 271.851L498.351 232.447Z" fill="#FFD600"/>
<path d="M106.449 403.811L136.125 431.217L97.5526 443.215L106.449 403.811Z" fill="#FFD600"/>
<path d="M196.649 375.755L226.326 403.162L187.753 415.159L196.649 375.755Z" fill="#FFD600"/>
<path d="M286.863 347.696L316.539 375.102L277.967 387.1L286.863 347.696Z" fill="#FFD600"/>
<path d="M377.07 319.638L406.746 347.044L368.174 359.042L377.07 319.638Z" fill="#FFD600"/>
<path d="M467.277 291.58L496.953 318.986L458.381 330.984L467.277 291.58Z" fill="#FFD600"/>
<path d="M165.575 434.888L195.252 462.295L156.679 474.292L165.575 434.888Z" fill="#FFD600"/>
<path d="M255.788 406.828L285.465 434.235L246.892 446.232L255.788 406.828Z" fill="#FFD600"/>
<path d="M345.995 378.771L375.672 406.177L337.099 418.175L345.995 378.771Z" fill="#FFD600"/>
<path d="M436.202 350.713L465.879 378.119L427.306 390.117L436.202 350.713Z" fill="#FFD600"/>
<path d="M526.41 322.655L556.086 350.061L517.514 362.059L526.41 322.655Z" fill="#FFD600"/>
<path d="M134.507 494.019L164.183 521.426L125.611 533.423L134.507 494.019Z" fill="#FFD600"/>
<path d="M224.707 465.963L254.384 493.37L215.811 505.367L224.707 465.963Z" fill="#FFD600"/>
<path d="M314.921 437.903L344.597 465.31L306.025 477.307L314.921 437.903Z" fill="#FFD600"/>
<path d="M405.128 409.846L434.804 437.252L396.232 449.25L405.128 409.846Z" fill="#FFD600"/>
<path d="M495.335 381.788L525.012 409.194L486.439 421.192L495.335 381.788Z" fill="#FFD600"/>
<path d="M193.633 525.096L223.31 552.503L184.737 564.5L193.633 525.096Z" fill="#FFD600"/>
<path d="M283.846 497.036L313.523 524.443L274.95 536.44L283.846 497.036Z" fill="#FFD600"/>
<path d="M374.053 468.978L403.73 496.385L365.157 508.382L374.053 468.978Z" fill="#FFD600"/>
<path d="M464.261 440.921L493.937 468.327L455.365 480.325L464.261 440.921Z" fill="#FFD600"/>
</svg>
