<svg width="35" height="35" viewBox="0 0 35 35" fill="none" xmlns="http://www.w3.org/2000/svg">
<path d="M32.4063 34.375C28.5 34.375 24.6406 33.5234 20.8281 31.8203C17.0156 30.1172 13.5469 27.7031 10.4219 24.5781C7.29687 21.4531 4.88281 17.9844 3.17969 14.1719C1.47656 10.3594 0.625 6.5 0.625 2.59375C0.625 2.03125 0.8125 1.5625 1.1875 1.1875C1.5625 0.8125 2.03125 0.625 2.59375 0.625H10.1875C10.625 0.625 11.0156 0.773437 11.3594 1.07031C11.7031 1.36719 11.9063 1.71875 11.9688 2.125L13.1875 8.6875C13.25 9.1875 13.2344 9.60937 13.1406 9.95312C13.0469 10.2969 12.875 10.5938 12.625 10.8438L8.07813 15.4375C8.70313 16.5938 9.44531 17.7109 10.3047 18.7891C11.1641 19.8672 12.1094 20.9063 13.1406 21.9063C14.1094 22.875 15.125 23.7734 16.1875 24.6016C17.25 25.4297 18.375 26.1875 19.5625 26.875L23.9687 22.4688C24.25 22.1875 24.6172 21.9766 25.0703 21.8359C25.5234 21.6953 25.9687 21.6562 26.4062 21.7188L32.875 23.0312C33.3125 23.1562 33.6719 23.3828 33.9531 23.7109C34.2344 24.0391 34.375 24.4063 34.375 24.8125V32.4063C34.375 32.9688 34.1875 33.4375 33.8125 33.8125C33.4375 34.1875 32.9688 34.375 32.4063 34.375Z" fill="#FFD600"/>
</svg>
