<svg width="31" height="39" viewBox="0 0 31 39" fill="none" xmlns="http://www.w3.org/2000/svg">
<path d="M15.5 19.5C16.5313 19.5 17.4141 19.1328 18.1484 18.3984C18.8828 17.6641 19.25 16.7813 19.25 15.75C19.25 14.7187 18.8828 13.8359 18.1484 13.1016C17.4141 12.3672 16.5313 12 15.5 12C14.4687 12 13.5859 12.3672 12.8516 13.1016C12.1172 13.8359 11.75 14.7187 11.75 15.75C11.75 16.7813 12.1172 17.6641 12.8516 18.3984C13.5859 19.1328 14.4687 19.5 15.5 19.5ZM15.5 38.25C10.4687 33.9687 6.71094 29.9922 4.22656 26.3203C1.74219 22.6484 0.5 19.25 0.5 16.125C0.5 11.4375 2.00781 7.70313 5.02344 4.92188C8.03906 2.14063 11.5313 0.75 15.5 0.75C19.4687 0.75 22.9609 2.14063 25.9766 4.92188C28.9922 7.70313 30.5 11.4375 30.5 16.125C30.5 19.25 29.2578 22.6484 26.7734 26.3203C24.2891 29.9922 20.5313 33.9687 15.5 38.25Z" fill="#FFD600"/>
</svg>
