<svg width="39" height="31" viewBox="0 0 39 31" fill="none" xmlns="http://www.w3.org/2000/svg">
<path d="M4.5 30.5C3.46875 30.5 2.58594 30.1328 1.85156 29.3984C1.11719 28.6641 0.75 27.7813 0.75 26.75V4.25C0.75 3.21875 1.11719 2.33594 1.85156 1.60156C2.58594 0.867188 3.46875 0.5 4.5 0.5H34.5C35.5313 0.5 36.4141 0.867188 37.1484 1.60156C37.8828 2.33594 38.25 3.21875 38.25 4.25V26.75C38.25 27.7813 37.8828 28.6641 37.1484 29.3984C36.4141 30.1328 35.5313 30.5 34.5 30.5H4.5ZM19.5 17.375L34.5 8V4.25L19.5 13.625L4.5 4.25V8L19.5 17.375Z" fill="#FFD600"/>
</svg>
